<svg width="655" height="285" viewBox="0 0 655 285" fill="none" xmlns="http://www.w3.org/2000/svg">
<path d="M210.5 93L155.25 219H138.75L111.75 153.5L79 219H62.5L22.75 122.5L0 109.25V102.75L40.25 81.75L49.75 119.5L80.75 195.5L106.25 140L99 122.5L76.25 109.25V102.75L116.5 81.75L126 119.5L156.25 193.5L187 120.5L152.5 95.25L157 86.5H210.5V93Z" fill="black"/>
<path d="M347.035 219H301.535V197.25L273.285 219.5C269.952 220.833 265.785 221.5 260.785 221.5C246.785 221.5 236.618 218 230.285 211C224.118 204 221.035 195.583 221.035 185.75C221.035 179.75 223.202 173.917 227.535 168.25C231.868 162.417 238.118 156.917 246.285 151.75H301.535V133.5C301.535 122.333 298.535 114.5 292.535 110C286.702 105.5 278.618 103.25 268.285 103.25C258.118 103.25 245.952 109.833 231.785 123L224.285 114.5L260.535 85.75C267.035 84.5833 274.702 84 283.535 84C297.868 84 309.035 87.6667 317.035 95C325.035 102.167 329.035 112.583 329.035 126.25V201.5L351.535 210.25L347.035 219ZM267.785 202.75C278.285 202.75 289.535 197.833 301.535 188V160.75H256.535C254.035 163.583 252.285 166.417 251.285 169.25C250.452 172.083 250.035 175.25 250.035 178.75C250.035 185.25 251.618 190.917 254.785 195.75C258.118 200.417 262.452 202.75 267.785 202.75Z" fill="black"/>
<path d="M425.611 219.25H357.861V212.75L380.111 195.5V38.25L357.861 22.5V16L399.361 0.75H407.611V201.25L430.111 210.5L425.611 219.25Z" fill="black"/>
<path d="M506.92 219.25H439.17V212.75L461.42 195.5V38.25L439.17 22.5V16L480.67 0.75H488.92V201.25L511.42 210.5L506.92 219.25Z" fill="black"/>
<path d="M654.229 92.75L591.229 218.75L540.479 284.75L532.229 278.25C541.895 268.083 549.229 259.167 554.229 251.5C559.229 243.833 562.729 236.083 564.729 228.25C566.729 220.417 567.645 211.083 567.479 200.25L535.479 122.5L512.729 109.25V102.75L552.979 81.75L562.479 119.5L593.479 195.75L629.979 119.5L597.229 95.25L601.479 86.5L654.229 86.25V92.75Z" fill="black"/>
</svg>
