<svg width="997" height="284" viewBox="0 0 997 284" fill="none" xmlns="http://www.w3.org/2000/svg">
<path d="M552.5 92.25L497.25 218.25H480.75L453.75 152.75L421 218.25H404.5L364.75 121.75L342 108.5V102L382.25 81L391.75 118.75L422.75 194.75L448.25 139.25L441 121.75L418.25 108.5V102L458.5 81L468 118.75L498.25 192.75L529 119.75L494.5 94.5L499 85.75H552.5V92.25Z" fill="white"/>
<path d="M689.035 218.25H643.535V196.5L615.285 218.75C611.952 220.083 607.785 220.75 602.785 220.75C588.785 220.75 578.618 217.25 572.285 210.25C566.118 203.25 563.035 194.833 563.035 185C563.035 179 565.202 173.167 569.535 167.5C573.868 161.667 580.118 156.167 588.285 151H643.535V132.75C643.535 121.583 640.535 113.75 634.535 109.25C628.702 104.75 620.618 102.5 610.285 102.5C600.118 102.5 587.952 109.083 573.785 122.25L566.285 113.75L602.535 85C609.035 83.8333 616.702 83.25 625.535 83.25C639.868 83.25 651.035 86.9167 659.035 94.25C667.035 101.417 671.035 111.833 671.035 125.5V200.75L693.535 209.5L689.035 218.25ZM609.785 202C620.285 202 631.535 197.083 643.535 187.25V160H598.535C596.035 162.833 594.285 165.667 593.285 168.5C592.452 171.333 592.035 174.5 592.035 178C592.035 184.5 593.618 190.167 596.785 195C600.118 199.667 604.452 202 609.785 202Z" fill="white"/>
<path d="M767.611 218.5H699.861V212L722.111 194.75V37.5L699.861 21.75V15.25L741.361 0H749.611V200.5L772.111 209.75L767.611 218.5Z" fill="white"/>
<path d="M848.92 218.5H781.17V212L803.42 194.75V37.5L781.17 21.75V15.25L822.67 0H830.92V200.5L853.42 209.75L848.92 218.5Z" fill="white"/>
<path d="M996.229 92L933.229 218L882.479 284L874.229 277.5C883.895 267.333 891.229 258.417 896.229 250.75C901.229 243.083 904.729 235.333 906.729 227.5C908.729 219.667 909.645 210.333 909.479 199.5L877.479 121.75L854.729 108.5V102L894.979 81L904.479 118.75L935.479 195L971.979 118.75L939.229 94.5L943.479 85.75L996.229 85.5V92Z" fill="white"/>
<path d="M203 12.5L0 119.5L88.5 269.5L147.5 170L203 12.5Z" fill="#FFC8C8"/>
<path d="M184 272L270.5 119.5L203.5 12L97 119.5L184 272Z" fill="#FD7474"/>
</svg>
